<svg width="509" height="105" viewBox="0 0 509 105" fill="none" xmlns="http://www.w3.org/2000/svg">
<g clip-path="url(#clip0_1_1638)">
<path d="M148.853 17.1313V25.559C148.853 28.4603 149.968 29.98 152.477 29.98C155.125 29.98 155.961 27.9076 155.961 25.8353V16.9932H157.773V25.8353C157.773 29.0129 155.822 31.2234 152.338 31.2234C148.296 31.2234 146.763 29.1511 146.763 25.559V16.9932H148.853V17.1313Z" fill="#383838"/>
<path d="M174.359 31.2239H172.826C169.76 27.6318 164.463 21.2766 163.627 20.0332V31.2239H161.955V17.1318H163.348C166.415 20.7239 171.711 26.941 172.547 28.3226V17.1318H174.22V31.2239H174.359Z" fill="#383838"/>
<path d="M180.77 17.2695H178.819V31.2235H180.77V17.2695Z" fill="#383838"/>
<path d="M188.575 31.2234L183.279 17.4076L185.23 16.9932C186.624 20.8616 188.018 24.73 189.272 29.0129C190.666 24.73 192.199 20.8616 193.593 16.9932L195.405 17.2695L189.83 31.2234H188.575Z" fill="#383838"/>
<path d="M205.161 18.6516H200.144V23.0726H205.022V24.5924H200.144V29.8424H205.997V31.2239H198.192V17.1318H205.161V18.6516Z" fill="#383838"/>
<path d="M211.154 24.0397H212.269C214.778 24.0397 215.196 22.2437 215.196 21.0003C215.196 19.3424 214.081 18.6516 212.827 18.6516H211.154V24.0397ZM209.203 17.1318H213.245C215.614 17.1318 217.287 18.3753 217.287 20.7239C217.287 22.7963 216.311 23.9016 214.917 24.8687L218.402 30.8095L216.45 31.3621L213.245 25.2832H211.154V31.0858H209.203V17.1318Z" fill="#383838"/>
<path d="M228.019 19.3418C227.322 18.7892 226.485 18.3747 225.51 18.3747C224.116 18.3747 223.28 19.2037 223.28 20.309C223.28 21.2761 224.116 22.105 225.928 23.3484C227.879 24.73 228.994 25.9734 228.994 27.7695C228.994 29.98 226.904 31.4997 224.674 31.4997C223.28 31.4997 221.747 31.0853 220.632 29.98L221.468 28.8747C222.304 29.4274 223.14 30.1182 224.534 30.1182C225.928 30.1182 227.043 29.4274 227.043 27.7695C227.043 25.9734 224.952 24.8682 223.837 24.0392C222.722 23.2103 221.329 22.2432 221.329 20.309C221.329 18.3747 223.14 16.9932 225.37 16.9932C226.904 16.9932 228.019 17.5458 228.855 18.3747L228.019 19.3418Z" fill="#383838"/>
<path d="M234.848 17.2695H232.897V31.2235H234.848V17.2695Z" fill="#383838"/>
<path d="M242.235 31.2239V18.6516H237.635V17.1318H248.786V18.6516H244.186V31.2239H242.235Z" fill="#383838"/>
<path d="M254.082 31.2234V25.1445L249.761 17.4076L251.852 16.9932L255.336 23.6247L258.96 16.9932L260.772 17.2695L256.033 25.1445V31.2234H254.082Z" fill="#383838"/>
<path d="M281.399 23.9015C281.399 21.2765 280.006 18.237 276.521 18.237C273.037 18.237 271.643 21.2765 271.643 23.9015C271.643 26.6647 272.898 29.9805 276.521 29.9805C280.145 29.9805 281.399 26.6647 281.399 23.9015ZM269.552 23.9015C269.552 20.0331 272.479 16.8555 276.661 16.8555C280.703 16.8555 283.769 19.8949 283.769 23.9015C283.769 28.0463 281.121 31.362 276.661 31.362C272.201 31.5002 269.552 28.1844 269.552 23.9015Z" fill="#383838"/>
<path d="M294.222 18.6516H289.205V23.9016H294.222V25.2832H289.205V31.2239H287.253V17.1318H294.222V18.6516Z" fill="#383838"/>
<path d="M55.1928 29.1517C51.7084 32.7438 43.0671 42.8294 38.6071 46.1451C36.7952 47.5267 34.8439 47.6649 31.6383 47.2504C27.3176 46.5596 23.1364 35.6451 20.6276 28.5991C18.2582 21.6912 15.7495 2.21094 15.7495 2.21094L0 14.7833C0 14.7833 0 15.7504 0.278751 17.4083C2.36939 28.4609 4.04189 34.5399 8.08379 42.1386C13.3801 52.0859 17.9795 58.4412 25.5057 58.7175C34.5652 58.9938 39.4433 52.9149 44.4608 46.4215C48.7815 40.8951 54.3565 31.3623 58.5378 26.1123V25.6978C57.4228 26.803 56.3078 28.0465 55.1928 29.1517Z" fill="#383838"/>
<path d="M91.8486 57.7497C84.1829 56.9207 81.6742 53.4668 76.796 47.3879C76.796 47.3879 73.0329 41.3089 70.3847 35.5063C66.4822 27.0786 66.0641 21.6905 61.0466 23.7629C59.9316 24.1773 59.5134 25.0063 58.3984 25.9734V105L95.7511 75.7102L134.079 105V6.2168C127.529 15.3352 115.264 40.0655 112.476 43.7957C108.574 49.1839 102.441 58.9931 91.8486 57.7497Z" fill="#383838"/>
<path d="M58.5378 0V25.6974C62.4404 21.5526 66.2035 17.6842 68.2941 16.4408C70.9423 14.9211 77.7717 12.1579 80.5592 19.4803C83.7648 28.0461 88.9217 37.8553 93.2424 42.6908C98.678 48.7697 102.441 47.8026 107.041 42.9671C111.222 38.6842 128.504 9.25658 134.079 2.76316V0H58.5378Z" fill="#383838"/>
<path d="M167.111 40.6186C169.481 48.2173 171.711 55.9541 174.08 64.5199H174.22C176.589 55.8159 178.819 47.9409 181.188 40.2041L184.394 40.7567L175.474 68.9409H171.99C169.76 61.4804 167.39 53.8817 165.16 45.5923H165.021C162.791 53.8817 160.421 61.4804 158.191 68.9409H154.707L146.344 41.033L150.108 40.2041C152.338 47.9409 154.568 55.8159 156.798 64.5199H156.937C159.167 55.9541 161.536 48.2173 163.906 40.6186H167.111Z" fill="#383838"/>
<path d="M211.293 54.2957C211.293 49.0457 208.367 42.9667 201.398 42.9667C194.29 42.9667 191.502 49.0457 191.502 54.2957C191.502 59.822 194.011 66.5917 201.398 66.5917C208.785 66.5917 211.293 59.822 211.293 54.2957ZM187.042 54.2957C187.042 46.4207 193.035 40.0654 201.398 40.0654C209.621 40.0654 215.614 46.2825 215.614 54.2957C215.614 62.7233 210.178 69.4931 201.398 69.4931C192.478 69.3549 187.042 62.7233 187.042 54.2957Z" fill="#383838"/>
<path d="M221.886 40.6182H225.789V66.0392H237.636V68.9405H221.886V40.6182Z" fill="#383838"/>
<path d="M247.671 68.9409L237.078 40.8949L241.12 40.2041C243.907 47.9409 246.695 55.6778 249.343 64.3817H249.482C252.409 55.6778 255.336 47.9409 258.124 40.2041L261.747 40.7567L250.319 68.9409H247.671Z" fill="#383838"/>
<path d="M279.727 43.3813H269.692V52.4997H279.588V55.4011H269.692V66.0392H281.539V68.9405H265.65V40.6182H279.727V43.3813Z" fill="#383838"/>
<path d="M290.738 54.2958H292.968C297.985 54.2958 298.961 50.5655 298.961 48.2169C298.961 44.7629 296.731 43.3813 294.083 43.3813H290.738V54.2958ZM286.835 40.6182H295.058C299.658 40.6182 303.421 42.9669 303.421 47.9405C303.421 52.0853 301.33 54.434 298.682 56.23L305.79 68.2497L301.748 69.4932L295.198 57.3353H291.016V69.0787H287.114V40.6182H286.835Z" fill="#383838"/>
<path d="M332.132 68.9405H328.23V54.8484H314.292V68.9405H310.25V40.6182H314.292V51.9471H328.23V40.6182H332.132V68.9405Z" fill="#383838"/>
<path d="M353.178 57.7497C351.784 53.8813 350.39 49.8747 348.857 44.7629H348.718C347.185 49.8747 345.791 53.7432 344.118 57.7497H353.178ZM350.948 40.6182L361.54 68.9405H356.941L354.014 60.6511H343.143L340.077 68.9405H336.174L347.742 40.6182H350.948Z" fill="#383838"/>
<path d="M396.663 68.9405H392.761V45.8682H392.621C391.506 49.184 384.956 61.7563 381.193 68.9405H379.659C376.175 61.7563 370.182 49.5984 369.067 45.8682H368.927V68.9405H365.722V40.6182H369.903C373.527 48.0787 377.29 55.6774 380.914 63.6905C384.956 55.6774 388.998 48.2168 393.039 40.6182H396.803V68.9405H396.663Z" fill="#383838"/>
<path d="M408.371 68.9405H404.468V40.6182H411.716C417.709 40.6182 421.472 43.2432 421.472 48.7695C421.472 53.605 417.291 57.8879 410.88 57.8879H409.625V55.2629H410.88C414.782 55.1247 417.151 53.0524 417.151 48.7695C417.151 45.5918 415.34 43.3813 411.158 43.3813H408.371V68.9405Z" fill="#383838"/>
<path d="M433.04 68.9405V43.3813H423.841V40.6182H446.142V43.3813H436.943V68.9405H433.04Z" fill="#383838"/>
<path d="M473.32 54.2957C473.32 49.0457 470.393 42.9667 463.424 42.9667C456.316 42.9667 453.528 49.0457 453.528 54.2957C453.528 59.822 456.037 66.5917 463.424 66.5917C470.811 66.5917 473.32 59.822 473.32 54.2957ZM449.068 54.2957C449.068 46.4207 455.062 40.0654 463.424 40.0654C471.647 40.0654 477.64 46.2825 477.64 54.2957C477.64 62.7233 472.205 69.4931 463.424 69.4931C454.643 69.3549 449.068 62.7233 449.068 54.2957Z" fill="#383838"/>
<path d="M509 68.9405H505.934C499.801 61.6182 489.069 48.9076 487.397 46.4208H487.257V68.9405H484.052V40.6182H486.979C493.251 47.9405 503.843 60.3747 505.655 63.1379H505.794V40.6182H509V68.9405Z" fill="#383838"/>
</g>
<defs>
<clipPath id="clip0_1_1638">
<rect width="509" height="105" fill="white"/>
</clipPath>
</defs>
</svg>
